<svg width="39" height="43" viewBox="0 0 39 43" fill="none" xmlns="http://www.w3.org/2000/svg">
<path d="M32.5079 25.0978C33.3233 24.7375 34.2932 24.4067 35.3844 24.0206C36.4976 23.6268 38.9949 22.2362 38.8645 21.6339C38.5983 20.9209 34.3932 23.0588 33.4142 23.7914C33.4061 23.731 33.9216 23.1231 33.9779 23.0577C34.137 22.8722 34.2979 22.6708 34.4595 22.4747C34.6764 22.2112 34.9174 21.9848 35.1691 21.7524C35.6583 21.3009 36.1485 20.8303 36.5756 20.2952C36.9987 19.7651 37.1867 19.6084 37.5587 18.9656C37.806 18.5386 37.9923 17.6552 37.8681 17.4841C37.7638 17.3752 36.4968 18.0267 35.5492 19.0533C34.8076 19.8566 34.1764 20.7526 33.6611 21.7778C33.4932 22.1116 33.3765 22.4739 33.1542 22.7788C33.3014 22.0956 33.5489 21.2692 33.509 20.4219C33.4691 19.577 33.4534 17.8657 33.0168 17.6031C32.763 17.4787 32.2672 19.7989 32.2671 20.7895C32.2671 21.2642 32.2899 21.7626 32.3051 22.2467C32.3209 22.7501 32.363 23.2659 32.3178 23.7166C32.3004 23.8905 32.1316 24.0214 32.0389 24.1222C32.1662 23.1446 32.1367 22.1936 31.9143 21.423C31.6903 20.6464 31.1691 18.225 30.9689 18.2277C30.516 18.2669 30.6478 21.0396 30.7591 22.069C30.8349 22.7701 31.119 23.5939 31.3166 24.2109C31.3804 24.4099 31.4759 24.6888 31.456 24.8572C31.4359 25.0264 31.1926 25.2277 31.1265 25.3386C30.9103 24.1246 30.7263 22.9045 30.2606 21.9172C29.9377 21.2329 29.4849 20.7173 28.8836 20.2572C28.6071 20.0456 28.0332 19.6803 27.9206 19.7883C27.5014 20.3286 28.2172 22.4502 28.7823 23.3746C29.3632 24.325 30.0358 25.1884 30.5944 26.1244C30.4703 26.3508 30.3422 26.5732 30.1889 26.7706C29.6443 25.8263 29.3934 24.7111 28.6682 23.9702C28.1225 23.4129 27.4089 23.0817 26.699 22.6749C26.4567 22.536 26.0041 22.3764 25.8931 22.4242C25.6262 22.591 26.6568 24.6221 27.4138 25.364C28.1719 26.1072 29.1878 26.5726 29.8214 27.4296C29.7279 27.6359 29.4973 27.9696 29.4117 28.1836C29.3137 28.1331 29.2618 28.0275 29.1962 27.9429C28.7297 27.3407 28.1953 26.3165 27.5428 25.8735C26.7787 25.3547 25.3517 24.7287 24.9546 24.7367C24.6188 24.7553 26.5619 27.2859 27.9334 27.9744C28.4227 28.2202 28.759 28.4926 29.0821 28.8553C28.519 30.0283 28.1872 31.1682 27.8193 32.5362C26.3297 28.6993 24.8462 24.8567 22.9533 21.423C23.3639 21.1059 23.8069 20.8237 24.2712 20.5487C24.7301 20.277 25.2214 20.0463 25.7032 19.7884C26.6544 19.2794 27.6407 18.7917 28.6303 18.3312C30.3467 17.5328 32.0486 16.6437 33.1289 15.1507C33.3357 14.8648 33.864 14.2229 33.509 14.1749C32.0663 13.9297 30.7089 14.1871 29.7074 14.6311C28.6738 15.0893 27.8244 15.7361 27.0337 16.3925C25.5192 17.6495 24.2252 19.1275 22.8899 20.5742C22.8077 20.6635 22.7289 20.7637 22.6238 20.8277C22.5239 20.6318 22.5955 20.7327 22.4975 20.535C23.1672 19.3183 23.8726 18.0024 24.8034 17.0008C25.725 16.009 26.5758 15.3324 27.4254 14.2578C28.2702 13.1894 28.7747 12.3218 29.6547 10.7965C29.8996 10.3721 30.2501 9.66546 30.8866 7.86312C31.0028 7.53422 31.5906 6.33783 31.4434 5.77349C31.3496 5.4145 29.4875 7.37447 28.54 8.27382C27.5314 9.23124 26.6534 10.4905 25.8045 11.6153C24.0961 13.8786 23.2709 16.8933 22.1454 19.7725C22.0819 19.6842 21.5496 19.0531 21.5467 18.9776C21.5437 18.8945 21.6921 18.6671 21.7368 18.5595C22.6273 16.4119 23.5448 14.3439 24.3851 12.1475C24.8303 10.984 25.2323 9.78771 25.3229 8.24456C25.4012 6.91181 25.142 5.5605 24.9555 4.43029C24.908 4.14301 24.7961 3.4992 24.512 3.69527C24.3285 3.82199 24.129 4.09634 23.9924 4.30357C22.9398 5.90021 22.3537 7.86136 21.9396 10.0946C21.4636 12.6614 21.4295 15.5229 21.0399 18.154C20.997 18.1658 19.7349 16.1297 19.4479 15.7298C19.6555 14.4199 20.2009 13.4334 20.4191 12.4511C20.7153 11.1183 20.8085 9.79899 20.7357 8.26971C20.6168 5.7729 19.9493 3.56914 19.4645 1.53535C19.3979 1.25583 19.154 0.391156 18.8802 0.400794C18.6205 0.409846 18.6 1.125 18.5689 1.40476C18.3524 3.35556 18.2171 5.45753 18.0873 7.49684C17.9402 9.81133 18.2737 12.9582 18.7666 14.8782C18.7732 14.9163 17.4173 13.3152 17.023 12.8824C17.2653 11.7788 17.36 10.3552 17.1876 9.15684C17.0235 8.01558 16.6509 6.96283 16.2879 6.00153C15.6491 4.30922 14.7975 2.68731 13.8578 1.24619C13.7215 1.03731 13.3874 0.472497 13.2028 0.400911C13.1161 0.369291 13.0601 0.476377 13.0566 0.90742C13.0741 1.46059 13.3505 4.25691 13.7138 5.96474C14.0801 7.68598 14.6189 9.25052 15.9246 11.6918C15.8931 11.7162 15.0589 10.855 14.97 10.7662C14.139 9.93511 13.2282 9.03647 12.8175 8.27371C12.1851 7.09918 11.5332 5.63902 10.2425 4.34836C9.28417 3.39 7.64157 2.31786 6.83356 1.87906C5.5583 1.18671 3.37228 0.236464 3.43094 0.764483C3.51322 1.50526 5.015 3.99113 7.53766 6.04444C8.41832 6.76135 10.5994 7.86864 11.6443 8.39114C11.9963 8.5671 13.482 10.1666 13.4629 10.2098C12.2141 9.80169 9.50939 8.7091 8.10036 8.36962C7.38356 8.19683 6.52324 8.12301 5.70535 8.17955C4.63603 8.25349 3.66098 8.5604 3.5131 8.62306C3.3523 8.69123 3.07336 8.84122 3.19632 8.97793C4.33805 9.77983 6.00885 10.4777 7.83094 10.6793C9.30356 10.8422 12.1577 11.1657 13.7408 11.2352C13.9859 11.246 14.2511 11.2215 14.4378 11.2733C14.562 11.3076 16.1128 12.8343 16.0982 12.8913C13.9947 12.5278 11.3686 11.8813 9.01416 11.6787C6.79794 11.488 4.1495 11.6951 2.83909 12.6175C2.59624 12.7884 2.13405 13.2165 2.43356 13.3778C3.80392 14.0001 7.35253 14.2748 9.79984 14.4031C12.3597 14.5373 14.7286 14.2008 16.5919 13.5034C17.4676 14.4651 17.9672 15.1154 18.684 16.1938C16.3579 15.875 13.9845 15.4372 11.5117 15.2687C8.89145 15.09 6.17976 15.2503 4.21274 15.9403C2.87436 16.4098 0.373437 17.665 0.677295 17.8158C1.87321 18.4384 3.41213 18.6775 5.08717 18.6775C6.80547 18.6775 8.35249 18.4074 9.8518 18.1707C11.4103 17.9246 12.8579 17.7032 14.4137 17.461C15.7108 17.2591 17.0896 17.0748 18.5701 17.0048C18.7838 16.9948 19.1176 16.9662 19.2417 17.0048C19.3345 17.0337 20.2094 18.2077 20.4159 18.611C18.008 18.5775 15.5764 19.0451 13.0902 19.0942C12.2713 19.1104 11.4515 19.1098 10.6699 19.1957C8.04722 19.4835 6.17001 20.5727 4.46065 21.8061C4.23037 21.9723 3.92851 22.2009 3.77641 22.389C3.70788 22.4738 3.57364 22.7196 3.64405 22.7513C4.96504 23.2504 6.90667 23.0887 8.3003 22.8452C9.77293 22.5881 11.1702 22.2299 12.52 21.8948C15.3034 21.2038 18.0018 19.8727 20.7961 19.2447C21.0017 19.4953 21.3201 20.0915 21.4834 20.3844C19.5098 21.0681 17.4954 21.6196 15.8697 22.6146C14.2336 23.6161 12.9604 24.9318 11.688 26.2768C11.3774 25.9496 9.75753 24.3076 9.68277 24.5867C9.63622 24.7742 10.294 26.6865 10.6362 27.4299C10.5365 27.5402 10.2979 27.8095 10.1293 27.9874C9.31273 27.2581 6.92618 25.0865 6.90091 25.3248C6.84226 25.9448 8.58676 28.39 9.25502 29.4574C9.60484 30.0162 9.99286 30.4537 10.4715 30.864C10.8796 31.2138 11.3346 31.552 11.726 31.903C11.7783 31.95 11.868 32.0133 11.8527 32.0551C11.7189 32.0072 11.5737 31.9712 11.4092 31.9285C11.2574 31.889 11.0599 31.8904 10.9276 31.8271C10.8241 31.7775 8.77507 29.204 7.92274 28.2202C6.89527 27.0344 5.88284 26.2964 4.08473 25.8966C3.79157 25.8375 4.37719 26.8305 4.65495 27.2398C5.83665 28.98 7.66814 30.1075 9.31826 31.3328C9.37997 31.3786 9.48106 31.4102 9.47024 31.4595C8.02701 30.904 6.71013 30.1437 5.11115 29.6982C4.327 29.4797 3.40097 29.2927 2.45001 29.2927C1.48272 29.2927 0.920028 29.5502 0.154565 29.7995C-0.106388 29.8907 0.0116288 29.9936 0.154565 30.1163C1.19379 30.9464 2.52242 31.2362 4.22414 31.3962C5.08423 31.477 5.96371 31.5135 6.79653 31.6242C7.62065 31.7338 8.38834 31.9644 9.11549 32.1058C7.78557 32.3307 6.44789 32.3977 5.40266 32.8788C4.89557 33.1121 4.46123 33.4312 4.05946 33.7784C3.66862 34.1162 3.21818 34.4807 3.07101 35.0202C3.06854 35.2038 4.69468 35.1091 5.36458 34.9315C7.23075 34.4367 8.62027 33.4792 10.218 32.6759C10.3583 32.6054 10.5447 32.4797 10.6489 32.4731C10.7747 32.4653 11.0433 32.563 11.181 32.5998C11.3653 32.6491 11.5334 32.7139 11.7006 32.7393C10.8942 33.0143 10.1118 33.2172 9.39419 33.5249C7.23862 34.4494 4.4027 36.7361 4.06205 38.3259C4.02008 38.5203 7.18537 37.0203 8.97373 35.9269C9.66302 35.5055 10.3605 34.9917 10.9148 34.4374C11.477 33.8752 12.0901 33.4139 12.8155 33.0436C13.2461 33.2213 13.7235 33.352 14.1841 33.4998C13.3979 33.8397 12.6076 34.2172 11.8145 34.5895C10.2382 35.3297 8.61909 36.4142 7.59597 37.7244C7.08781 38.3751 6.38488 39.9712 6.72036 39.8737C10.3353 38.6732 13.2736 36.7966 15.1345 33.842C15.5356 33.9773 16.1791 34.2368 16.5719 34.3804C15.9149 34.9035 15.2127 35.3448 14.5223 35.8315C13.8302 36.3192 13.098 36.7482 12.4947 37.3394C11.8798 37.9422 11.0719 38.9891 10.682 39.7777C10.3013 40.5477 9.64221 41.6459 9.79561 41.7112C10.603 41.7017 12.9128 40.0582 14.0407 38.6826C14.5738 38.0325 17.3046 34.715 17.3648 34.7417C17.7085 34.8941 18.0687 35.081 18.3785 35.2232C17.3363 36.141 16.2476 36.9673 15.426 38.1124C14.6102 39.2494 12.8384 42.5337 13.052 42.7111C13.1137 42.767 14.8234 41.431 15.3399 40.951C16.3493 40.0133 17.0093 39.0597 17.6866 37.7831C17.9443 37.2974 18.3244 36.3706 18.6446 35.9329C18.7442 35.7968 18.8388 35.6365 18.9868 35.5399C21.806 37.0358 24.2518 38.891 26.2351 41.2677C26.3399 41.3933 26.5369 41.6931 26.6406 41.7239C26.7388 41.7532 26.8977 41.7215 27.0206 41.7239C27.3519 41.7306 27.7334 41.8026 28.0725 41.7873C27.9491 39.8508 27.6781 37.4611 28.0205 35.5441C28.7197 37.4512 29.3477 39.6038 29.8972 41.6606C30.1381 41.7661 30.5504 41.7002 30.8603 41.7366C30.2442 39.2409 29.3765 36.7274 28.5033 34.3869C28.4388 34.2142 28.3149 34.0099 28.3258 33.842C28.3539 33.4088 28.4941 32.9051 28.6046 32.4988C28.9426 31.2563 29.398 30.0179 29.9098 28.9633C31.1218 29.2975 31.9148 29.7177 33.0489 30.131C34.1253 30.5231 36.3172 30.7684 37.247 30.4966C37.3432 30.4651 36.9771 30.024 36.7654 29.8503C36.5533 29.6763 36.3389 29.5001 36.1064 29.3561C35.6292 29.0607 35.0792 28.8468 34.4718 28.6845C33.2378 28.3546 31.7548 28.3724 30.2015 28.3804C30.2996 28.1575 30.4147 27.9517 30.5435 27.7595C31.91 27.659 33.0214 28.0568 34.2943 28.0763C34.9427 28.0862 35.9657 28.0306 36.555 27.965C37.1642 27.897 38.5982 27.7411 38.4669 27.4823C38.209 27.011 35.8077 26.5431 34.4972 26.5431C33.213 26.543 32.048 26.8256 30.949 27.0626C31.045 26.8884 31.1399 26.7129 31.2657 26.5684C32.4893 26.379 33.7916 26.2584 34.8899 25.9348C35.972 25.6159 38.5561 24.5692 38.3533 23.9055C38.2389 23.5991 33.9249 24.7571 31.7107 25.8359C31.785 25.714 32.3859 25.1516 32.5079 25.0978ZM12.9298 32.3586C12.5467 31.6591 12.259 30.9001 11.8908 30.2045C11.5205 29.5055 11.0483 28.9112 10.5474 28.3544C10.6625 28.2767 10.8536 28.1695 10.953 28.0883C11.8462 29.9029 13.3376 31.1186 14.3618 32.8023C13.8969 32.6418 13.4191 32.4945 12.9298 32.3586ZM15.1981 33.0811C14.5766 31.5674 14.037 29.9081 13.3353 28.4432C13.1605 28.0784 12.9694 27.7274 12.727 27.4167C12.6538 27.3228 12.5889 27.2367 12.5115 27.1253C12.91 26.9662 13.3214 26.7525 13.7026 26.6185C14.0889 29.3115 14.84 31.6397 16.1356 33.4233C15.849 33.334 15.5007 33.1964 15.1981 33.0811ZM27.0336 40.7602C26.9803 40.7791 26.9654 40.7077 26.9448 40.6842C24.8486 38.2909 22.2671 36.304 19.2656 34.8044C19.6226 33.3238 19.717 31.9622 19.7987 30.6838C19.8538 29.8197 19.4733 28.7047 19.1534 27.7506C19.1021 27.6155 18.7686 28.1196 18.5667 28.3959C18.2252 28.8634 18.3558 29.4556 18.2404 30.1339C18.0792 31.0811 18.2733 33.1478 18.6321 34.4875C18.1936 34.3051 17.7729 34.1048 17.3395 33.9173C17.0794 32.3985 16.7551 30.8617 16.3004 29.5074C15.8535 28.1761 14.5806 26.9096 13.8855 26.5367C15.5361 25.842 16.9151 25.2182 18.1379 24.1473C18.7567 23.6054 19.2565 22.9914 19.8233 22.4365C20.4082 21.864 21.0959 21.4225 21.8001 20.9539C21.9031 21.0789 21.9643 21.2459 22.0534 21.3848C21.9372 21.57 21.7743 21.7215 21.6226 21.879C20.5461 22.9966 19.5214 24.1687 18.5687 25.4397C18.0417 26.1428 17.542 26.908 17.2508 27.8981C17.0652 28.5292 16.9035 29.5584 17.0734 30.4071C17.132 30.7004 17.2906 31.0473 17.4165 31.038C17.5853 31.0255 17.8135 30.7821 17.9477 30.648C18.9557 29.64 19.8765 28.5325 20.6468 27.328C21.5653 25.8913 22.2657 24.338 22.5983 22.4113C24.441 25.9038 25.8491 29.7672 27.3376 33.6766C27.3902 33.8149 27.0748 36.4019 27.0081 37.2374C26.9161 38.3921 26.9586 39.5691 27.0336 40.7602Z" fill="#106A0E"/>
</svg>
